<svg version="1.1" preserveAspectRatio="none" xmlns="http://www.w3.org/2000/svg" width="500" height="500" viewBox="0 0 500 500"><rect width="100%" height="100%" fill="#FFFFFF" fill-opacity="1"/><svg viewBox="-46.5797 136.5062 515.8863 136.4" width="333" height="88.04498200475571" x="83.5px" y="205.9775px" xmlns="http://www.w3.org/2000/svg" xmlns:xlink="http://www.w3.org/1999/xlink" preserveAspectRatio="none"><defs></defs><style>.background {fill:#FFFFFF;fill-opacity:1;}.companyName {fill:#0C0C0C;fill-opacity:1;}.icon3 {fill:#6F5CF3;fill-opacity:1;}.icon3-str {stroke:#6F5CF3;stroke-opacity:1;}.shape {fill:#F55649;fill-opacity:1;}.text {fill:#0C0C0C;fill-opacity:1;}.text-str {stroke:#0C0C0C;stroke-opacity:1;}</style><g opacity="1" transform="rotate(0 56.4202 136.5062)">
<svg width="412.8864" height="100" x="56.4202" y="136.5062" version="1.1" preserveAspectRatio="none" viewBox="0 0 412.8864 100">
  <defs><rect x="0" y="0" width="412.8864" height="100" rx="0px" ry="0px" id="id-B7crM0kCi1718580529123"></rect></defs><use class="companyName text-str" style="stroke-width:0;" xlink:href="#id-B7crM0kCi1718580529123"></use>
</svg>
</g><g opacity="1" transform="rotate(0 -23.1078 254.5062)">
<svg width="468.9425" height="18.4" x="-23.1078" y="254.5062" version="1.1" preserveAspectRatio="none" viewBox="-0.04 -30.28 975.5600000000001 38.28">
  <g transform="matrix(1 0 0 1 0 0)" class="text"><path id="id-6izo4zJp42" d="M25.12 0L22.04-7L7.16-7L4.08 0L-0.04 0L12.64-28L16.60-28L29.32 0L25.12 0ZM8.56-10.20L20.64-10.20L14.60-23.92L8.56-10.20Z M55.40-21.40Q59.80-21.40 62.14-19.24Q64.48-17.08 64.48-12.80L64.48-12.80L64.48 0L60.84 0L60.84-2.80Q59.88-1.32 58.10-0.54Q56.32 0.24 53.88 0.24L53.88 0.24Q50.32 0.24 48.18-1.48Q46.04-3.20 46.04-6L46.04-6Q46.04-8.80 48.08-10.50Q50.12-12.20 54.56-12.20L54.56-12.20L60.64-12.20L60.64-12.96Q60.64-15.44 59.20-16.76Q57.76-18.08 54.96-18.08L54.96-18.08Q53.08-18.08 51.28-17.46Q49.48-16.84 48.24-15.80L48.24-15.80L46.64-18.68Q48.28-20 50.56-20.70Q52.84-21.40 55.40-21.40L55.40-21.40ZM54.52-2.72Q56.72-2.72 58.32-3.70Q59.92-4.68 60.64-6.48L60.64-6.48L60.64-9.44L54.72-9.44Q49.84-9.44 49.84-6.16L49.84-6.16Q49.84-4.56 51.08-3.64Q52.32-2.72 54.52-2.72L54.52-2.72Z M77.28-17.64Q78.28-19.48 80.24-20.44Q82.20-21.40 85.00-21.40L85.00-21.40L85.00-17.68Q84.68-17.72 84.12-17.72L84.12-17.72Q81.00-17.72 79.22-15.86Q77.44-14 77.44-10.56L77.44-10.56L77.44 0L73.60 0L73.60-21.20L77.28-21.20L77.28-17.64Z M103.32-4L104.52-1.24Q103.68-0.52 102.44-0.14Q101.20 0.24 99.88 0.24L99.88 0.24Q96.68 0.24 94.92-1.48Q93.16-3.20 93.16-6.40L93.16-6.40L93.16-18.04L89.56-18.04L89.56-21.20L93.16-21.20L93.16-25.84L97.00-25.84L97.00-21.20L103.08-21.20L103.08-18.04L97.00-18.04L97.00-6.56Q97.00-4.84 97.86-3.92Q98.72-3 100.32-3L100.32-3Q102.08-3 103.32-4L103.32-4Z M129.60-10.48Q129.60-10.04 129.52-9.32L129.52-9.32L112.32-9.32Q112.68-6.52 114.78-4.82Q116.88-3.12 120.00-3.12L120.00-3.12Q123.80-3.12 126.12-5.68L126.12-5.68L128.24-3.20Q126.80-1.52 124.66-0.64Q122.52 0.24 119.88 0.24L119.88 0.24Q116.52 0.24 113.92-1.14Q111.32-2.52 109.90-5Q108.48-7.48 108.48-10.60L108.48-10.60Q108.48-13.68 109.86-16.16Q111.24-18.64 113.66-20.02Q116.08-21.40 119.12-21.40L119.12-21.40Q122.16-21.40 124.54-20.02Q126.92-18.64 128.26-16.16Q129.60-13.68 129.60-10.48L129.60-10.48ZM119.12-18.16Q116.36-18.16 114.50-16.48Q112.64-14.80 112.32-12.08L112.32-12.08L125.92-12.08Q125.60-14.76 123.74-16.46Q121.88-18.16 119.12-18.16L119.12-18.16Z M165.84-29.68L169.68-29.68L169.68 0L166 0L166-3.36Q164.72-1.60 162.76-0.68Q160.80 0.24 158.44 0.24L158.44 0.24Q155.36 0.24 152.92-1.12Q150.48-2.48 149.10-4.94Q147.72-7.40 147.72-10.60L147.72-10.60Q147.72-13.80 149.10-16.24Q150.48-18.68 152.92-20.04Q155.36-21.40 158.44-21.40L158.44-21.40Q160.72-21.40 162.64-20.54Q164.56-19.68 165.84-18L165.84-18L165.84-29.68ZM158.76-3.12Q160.76-3.12 162.40-4.06Q164.04-5 164.96-6.70Q165.88-8.40 165.88-10.60L165.88-10.60Q165.88-12.80 164.96-14.50Q164.04-16.20 162.40-17.12Q160.76-18.04 158.76-18.04L158.76-18.04Q156.72-18.04 155.10-17.12Q153.48-16.20 152.54-14.50Q151.60-12.80 151.60-10.60L151.60-10.60Q151.60-8.40 152.54-6.70Q153.48-5 155.10-4.06Q156.72-3.12 158.76-3.12L158.76-3.12Z M198.12-10.48Q198.12-10.04 198.04-9.32L198.04-9.32L180.84-9.32Q181.20-6.52 183.30-4.82Q185.40-3.12 188.52-3.12L188.52-3.12Q192.32-3.12 194.64-5.68L194.64-5.68L196.76-3.20Q195.32-1.52 193.18-0.64Q191.04 0.24 188.40 0.24L188.40 0.24Q185.04 0.24 182.44-1.14Q179.84-2.52 178.42-5Q177-7.48 177-10.60L177-10.60Q177-13.68 178.38-16.16Q179.76-18.64 182.18-20.02Q184.60-21.40 187.64-21.40L187.64-21.40Q190.68-21.40 193.06-20.02Q195.44-18.64 196.78-16.16Q198.12-13.68 198.12-10.48L198.12-10.48ZM187.64-18.16Q184.88-18.16 183.02-16.48Q181.16-14.80 180.84-12.08L180.84-12.08L194.44-12.08Q194.12-14.76 192.26-16.46Q190.40-18.16 187.64-18.16L187.64-18.16Z M225.92-21.40Q230.32-21.40 232.66-19.24Q235.00-17.08 235.00-12.80L235.00-12.80L235.00 0L231.36 0L231.36-2.80Q230.40-1.32 228.62-0.54Q226.84 0.24 224.40 0.24L224.40 0.24Q220.84 0.24 218.70-1.48Q216.56-3.20 216.56-6L216.56-6Q216.56-8.80 218.60-10.50Q220.64-12.20 225.08-12.20L225.08-12.20L231.16-12.20L231.16-12.96Q231.16-15.44 229.72-16.76Q228.28-18.08 225.48-18.08L225.48-18.08Q223.60-18.08 221.80-17.46Q220.00-16.84 218.76-15.80L218.76-15.80L217.16-18.68Q218.80-20 221.08-20.70Q223.36-21.40 225.92-21.40L225.92-21.40ZM225.04-2.72Q227.24-2.72 228.84-3.70Q230.44-4.68 231.16-6.48L231.16-6.48L231.16-9.44L225.24-9.44Q220.36-9.44 220.36-6.16L220.36-6.16Q220.36-4.56 221.60-3.64Q222.84-2.72 225.04-2.72L225.04-2.72Z M260.88-21.20L264.52-21.20L264.52-2.88Q264.52 2.68 261.76 5.34Q259.00 8 253.52 8L253.52 8Q250.52 8 247.80 7.18Q245.08 6.36 243.40 4.84L243.40 4.84L245.24 1.88Q246.72 3.16 248.90 3.90Q251.08 4.64 253.40 4.64L253.40 4.64Q257.12 4.64 258.90 2.88Q260.68 1.12 260.68-2.48L260.68-2.48L260.68-4.16Q259.32-2.52 257.34-1.70Q255.36-0.88 253.04-0.88L253.04-0.88Q250.00-0.88 247.54-2.18Q245.08-3.48 243.68-5.82Q242.28-8.16 242.28-11.16L242.28-11.16Q242.28-14.16 243.68-16.50Q245.08-18.84 247.54-20.12Q250.00-21.40 253.04-21.40L253.04-21.40Q255.44-21.40 257.50-20.52Q259.56-19.64 260.88-17.92L260.88-17.92L260.88-21.20ZM253.48-4.24Q255.56-4.24 257.22-5.12Q258.88-6 259.82-7.58Q260.76-9.16 260.76-11.16L260.76-11.16Q260.76-14.24 258.72-16.14Q256.68-18.04 253.48-18.04L253.48-18.04Q250.24-18.04 248.20-16.14Q246.16-14.24 246.16-11.16L246.16-11.16Q246.16-9.16 247.10-7.58Q248.04-6 249.70-5.12Q251.36-4.24 253.48-4.24L253.48-4.24Z M277.52-17.64Q278.52-19.48 280.48-20.44Q282.44-21.40 285.24-21.40L285.24-21.40L285.24-17.68Q284.92-17.72 284.36-17.72L284.36-17.72Q281.24-17.72 279.46-15.86Q277.68-14 277.68-10.56L277.68-10.56L277.68 0L273.84 0L273.84-21.20L277.52-21.20L277.52-17.64Z M299.64-21.40Q304.04-21.40 306.38-19.24Q308.72-17.08 308.72-12.80L308.72-12.80L308.72 0L305.08 0L305.08-2.80Q304.12-1.32 302.34-0.54Q300.56 0.24 298.12 0.24L298.12 0.24Q294.56 0.24 292.42-1.48Q290.28-3.20 290.28-6L290.28-6Q290.28-8.80 292.32-10.50Q294.36-12.20 298.80-12.20L298.80-12.20L304.88-12.20L304.88-12.96Q304.88-15.44 303.44-16.76Q302-18.08 299.20-18.08L299.20-18.08Q297.32-18.08 295.52-17.46Q293.72-16.84 292.48-15.80L292.48-15.80L290.88-18.68Q292.52-20 294.80-20.70Q297.08-21.40 299.64-21.40L299.64-21.40ZM298.76-2.72Q300.96-2.72 302.56-3.70Q304.16-4.68 304.88-6.48L304.88-6.48L304.88-9.44L298.96-9.44Q294.08-9.44 294.08-6.16L294.08-6.16Q294.08-4.56 295.32-3.64Q296.56-2.72 298.76-2.72L298.76-2.72Z M334.12-29.68L337.96-29.68L337.96 0L334.28 0L334.28-3.36Q333-1.60 331.04-0.68Q329.08 0.24 326.72 0.24L326.72 0.24Q323.64 0.24 321.20-1.12Q318.76-2.48 317.38-4.94Q316-7.40 316-10.60L316-10.60Q316-13.80 317.38-16.24Q318.76-18.68 321.20-20.04Q323.64-21.40 326.72-21.40L326.72-21.40Q329-21.40 330.92-20.54Q332.84-19.68 334.12-18L334.12-18L334.12-29.68ZM327.04-3.12Q329.04-3.12 330.68-4.06Q332.32-5 333.24-6.70Q334.16-8.40 334.16-10.60L334.16-10.60Q334.16-12.80 333.24-14.50Q332.32-16.20 330.68-17.12Q329.04-18.04 327.04-18.04L327.04-18.04Q325-18.04 323.38-17.12Q321.76-16.20 320.82-14.50Q319.88-12.80 319.88-10.60L319.88-10.60Q319.88-8.40 320.82-6.70Q321.76-5 323.38-4.06Q325-3.12 327.04-3.12L327.04-3.12Z M354.96-21.40Q359.36-21.40 361.70-19.24Q364.04-17.08 364.04-12.80L364.04-12.80L364.04 0L360.40 0L360.40-2.80Q359.44-1.32 357.66-0.54Q355.88 0.24 353.44 0.24L353.44 0.24Q349.88 0.24 347.74-1.48Q345.60-3.20 345.60-6L345.60-6Q345.60-8.80 347.64-10.50Q349.68-12.20 354.12-12.20L354.12-12.20L360.20-12.20L360.20-12.96Q360.20-15.44 358.76-16.76Q357.32-18.08 354.52-18.08L354.52-18.08Q352.64-18.08 350.84-17.46Q349.04-16.84 347.80-15.80L347.80-15.80L346.20-18.68Q347.84-20 350.12-20.70Q352.40-21.40 354.96-21.40L354.96-21.40ZM354.08-2.72Q356.28-2.72 357.88-3.70Q359.48-4.68 360.20-6.48L360.20-6.48L360.20-9.44L354.28-9.44Q349.40-9.44 349.40-6.16L349.40-6.16Q349.40-4.56 350.64-3.64Q351.88-2.72 354.08-2.72L354.08-2.72Z M376.84-17.64Q377.84-19.48 379.80-20.44Q381.76-21.40 384.56-21.40L384.56-21.40L384.56-17.68Q384.24-17.72 383.68-17.72L383.68-17.72Q380.56-17.72 378.78-15.86Q377.00-14 377.00-10.56L377.00-10.56L377.00 0L373.16 0L373.16-21.20L376.84-21.20L376.84-17.64Z M413.40 0.24Q410.24 0.24 407.72-1.16Q405.20-2.56 403.78-5.02Q402.36-7.48 402.36-10.60L402.36-10.60Q402.36-13.72 403.78-16.18Q405.20-18.64 407.72-20.02Q410.24-21.40 413.40-21.40L413.40-21.40Q416.56-21.40 419.06-20.02Q421.56-18.64 422.98-16.18Q424.40-13.72 424.40-10.60L424.40-10.60Q424.40-7.48 422.98-5.02Q421.56-2.56 419.06-1.16Q416.56 0.24 413.40 0.24L413.40 0.24ZM413.40-3.12Q415.44-3.12 417.06-4.06Q418.68-5 419.60-6.70Q420.52-8.40 420.52-10.60L420.52-10.60Q420.52-12.80 419.60-14.50Q418.68-16.20 417.06-17.12Q415.44-18.04 413.40-18.04L413.40-18.04Q411.36-18.04 409.74-17.12Q408.12-16.20 407.18-14.50Q406.24-12.80 406.24-10.60L406.24-10.60Q406.24-8.40 407.18-6.70Q408.12-5 409.74-4.06Q411.36-3.12 413.40-3.12L413.40-3.12Z M450.56 0.24Q447.96 0.24 445.56-0.46Q443.16-1.16 441.80-2.24L441.80-2.24L443.40-5.28Q444.80-4.28 446.80-3.68Q448.80-3.08 450.84-3.08L450.84-3.08Q455.88-3.08 455.88-5.96L455.88-5.96Q455.88-6.92 455.20-7.48Q454.52-8.04 453.50-8.30Q452.48-8.56 450.60-8.88L450.60-8.88Q448.04-9.28 446.42-9.80Q444.80-10.32 443.64-11.56Q442.48-12.80 442.48-15.04L442.48-15.04Q442.48-17.92 444.88-19.66Q447.28-21.40 451.32-21.40L451.32-21.40Q453.44-21.40 455.56-20.88Q457.68-20.36 459.04-19.48L459.04-19.48L457.40-16.44Q454.80-18.12 451.28-18.12L451.28-18.12Q448.84-18.12 447.56-17.32Q446.28-16.52 446.28-15.20L446.28-15.20Q446.28-14.16 447-13.56Q447.72-12.96 448.78-12.68Q449.84-12.40 451.76-12.04L451.76-12.04Q454.32-11.60 455.90-11.10Q457.48-10.60 458.60-9.40Q459.72-8.20 459.72-6.04L459.72-6.04Q459.72-3.16 457.26-1.46Q454.80 0.24 450.56 0.24L450.56 0.24Z M485.68-10.48Q485.68-10.04 485.60-9.32L485.60-9.32L468.40-9.32Q468.76-6.52 470.86-4.82Q472.96-3.12 476.08-3.12L476.08-3.12Q479.88-3.12 482.20-5.68L482.20-5.68L484.32-3.20Q482.88-1.52 480.74-0.64Q478.60 0.24 475.96 0.24L475.96 0.24Q472.60 0.24 470-1.14Q467.40-2.52 465.98-5Q464.56-7.48 464.56-10.60L464.56-10.60Q464.56-13.68 465.94-16.16Q467.32-18.64 469.74-20.02Q472.16-21.40 475.20-21.40L475.20-21.40Q478.24-21.40 480.62-20.02Q483-18.64 484.34-16.16Q485.68-13.68 485.68-10.48L485.68-10.48ZM475.20-18.16Q472.44-18.16 470.58-16.48Q468.72-14.80 468.40-12.08L468.40-12.08L482-12.08Q481.68-14.76 479.82-16.46Q477.96-18.16 475.20-18.16L475.20-18.16Z M508.92-21.20L512.76-21.20L512.76 0L509.12 0L509.12-3.20Q507.96-1.56 506.06-0.66Q504.16 0.24 501.92 0.24L501.92 0.24Q497.68 0.24 495.24-2.10Q492.80-4.44 492.80-9L492.80-9L492.80-21.20L496.64-21.20L496.64-9.44Q496.64-6.36 498.12-4.78Q499.60-3.20 502.36-3.20L502.36-3.20Q505.40-3.20 507.16-5.04Q508.92-6.88 508.92-10.24L508.92-10.24L508.92-21.20Z M551-29.68L554.84-29.68L554.84 0L551.16 0L551.16-3.36Q549.88-1.60 547.92-0.68Q545.96 0.24 543.60 0.24L543.60 0.24Q540.52 0.24 538.08-1.12Q535.64-2.48 534.26-4.94Q532.88-7.40 532.88-10.60L532.88-10.60Q532.88-13.80 534.26-16.24Q535.64-18.68 538.08-20.04Q540.52-21.40 543.60-21.40L543.60-21.40Q545.88-21.40 547.80-20.54Q549.72-19.68 551-18L551-18L551-29.68ZM543.92-3.12Q545.92-3.12 547.56-4.06Q549.20-5 550.12-6.70Q551.04-8.40 551.04-10.60L551.04-10.60Q551.04-12.80 550.12-14.50Q549.20-16.20 547.56-17.12Q545.92-18.04 543.92-18.04L543.92-18.04Q541.88-18.04 540.26-17.12Q538.64-16.20 537.70-14.50Q536.76-12.80 536.76-10.60L536.76-10.60Q536.76-8.40 537.70-6.70Q538.64-5 540.26-4.06Q541.88-3.12 543.92-3.12L543.92-3.12Z M564.12 0L564.12-21.20L567.96-21.20L567.96 0L564.12 0ZM566.04-25.28Q564.92-25.28 564.18-26Q563.44-26.72 563.44-27.76L563.44-27.76Q563.44-28.80 564.18-29.54Q564.92-30.28 566.04-30.28L566.04-30.28Q567.16-30.28 567.90-29.58Q568.64-28.88 568.64-27.84L568.64-27.84Q568.64-26.76 567.90-26.02Q567.16-25.28 566.04-25.28L566.04-25.28Z M585-21.40Q589.40-21.40 591.74-19.24Q594.08-17.08 594.08-12.80L594.08-12.80L594.08 0L590.44 0L590.44-2.80Q589.48-1.32 587.70-0.54Q585.92 0.24 583.48 0.24L583.48 0.24Q579.92 0.24 577.78-1.48Q575.64-3.20 575.64-6L575.64-6Q575.64-8.80 577.68-10.50Q579.72-12.20 584.16-12.20L584.16-12.20L590.24-12.20L590.24-12.96Q590.24-15.44 588.80-16.76Q587.36-18.08 584.56-18.08L584.56-18.08Q582.68-18.08 580.88-17.46Q579.08-16.84 577.84-15.80L577.84-15.80L576.24-18.68Q577.88-20 580.16-20.70Q582.44-21.40 585-21.40L585-21.40ZM584.12-2.72Q586.32-2.72 587.92-3.70Q589.52-4.68 590.24-6.48L590.24-6.48L590.24-9.44L584.32-9.44Q579.44-9.44 579.44-6.16L579.44-6.16Q579.44-4.56 580.68-3.64Q581.92-2.72 584.12-2.72L584.12-2.72Z M625.20 0.24Q621.96 0.24 619.42-1.16Q616.88-2.56 615.44-5.02Q614.00-7.48 614.00-10.60L614.00-10.60Q614.00-13.72 615.44-16.18Q616.88-18.64 619.42-20.02Q621.96-21.40 625.20-21.40L625.20-21.40Q628.08-21.40 630.34-20.24Q632.60-19.08 633.84-16.88L633.84-16.88L630.92-15Q629.92-16.52 628.44-17.28Q626.96-18.04 625.16-18.04L625.16-18.04Q623.08-18.04 621.42-17.12Q619.76-16.20 618.82-14.50Q617.88-12.80 617.88-10.60L617.88-10.60Q617.88-8.36 618.82-6.66Q619.76-4.96 621.42-4.04Q623.08-3.12 625.16-3.12L625.16-3.12Q626.96-3.12 628.44-3.88Q629.92-4.64 630.92-6.16L630.92-6.16L633.84-4.32Q632.60-2.12 630.34-0.94Q628.08 0.24 625.20 0.24L625.20 0.24Z M649.56 0.24Q646.40 0.24 643.88-1.16Q641.36-2.56 639.94-5.02Q638.52-7.48 638.52-10.60L638.52-10.60Q638.52-13.72 639.94-16.18Q641.36-18.64 643.88-20.02Q646.40-21.40 649.56-21.40L649.56-21.40Q652.72-21.40 655.22-20.02Q657.72-18.64 659.14-16.18Q660.56-13.72 660.56-10.60L660.56-10.60Q660.56-7.48 659.14-5.02Q657.72-2.56 655.22-1.16Q652.72 0.24 649.56 0.24L649.56 0.24ZM649.56-3.12Q651.60-3.12 653.22-4.06Q654.84-5 655.76-6.70Q656.68-8.40 656.68-10.60L656.68-10.60Q656.68-12.80 655.76-14.50Q654.84-16.20 653.22-17.12Q651.60-18.04 649.56-18.04L649.56-18.04Q647.52-18.04 645.90-17.12Q644.28-16.20 643.34-14.50Q642.40-12.80 642.40-10.60L642.40-10.60Q642.40-8.40 643.34-6.70Q644.28-5 645.90-4.06Q647.52-3.12 649.56-3.12L649.56-3.12Z M694.40-21.40Q698.40-21.40 700.74-19.08Q703.08-16.76 703.08-12.20L703.08-12.20L703.08 0L699.24 0L699.24-11.76Q699.24-14.84 697.82-16.40Q696.40-17.96 693.76-17.96L693.76-17.96Q690.84-17.96 689.12-16.14Q687.40-14.32 687.40-10.92L687.40-10.92L687.40 0L683.56 0L683.56-11.76Q683.56-14.84 682.14-16.40Q680.72-17.96 678.08-17.96L678.08-17.96Q675.16-17.96 673.44-16.14Q671.72-14.32 671.72-10.92L671.72-10.92L671.72 0L667.88 0L667.88-21.20L671.56-21.20L671.56-18.04Q672.72-19.68 674.60-20.54Q676.48-21.40 678.88-21.40L678.88-21.40Q681.36-21.40 683.28-20.40Q685.20-19.40 686.24-17.48L686.24-17.48Q687.44-19.32 689.58-20.36Q691.72-21.40 694.40-21.40L694.40-21.40Z M736.16-21.40Q739.24-21.40 741.68-20.04Q744.12-18.68 745.50-16.24Q746.88-13.80 746.88-10.60L746.88-10.60Q746.88-7.40 745.50-4.94Q744.12-2.48 741.68-1.12Q739.24 0.24 736.16 0.24L736.16 0.24Q733.80 0.24 731.84-0.68Q729.88-1.60 728.60-3.36L728.60-3.36L728.60 0L724.92 0L724.92-29.68L728.76-29.68L728.76-18Q730.04-19.68 731.96-20.54Q733.88-21.40 736.16-21.40L736.16-21.40ZM735.84-3.12Q737.88-3.12 739.50-4.06Q741.12-5 742.06-6.70Q743.00-8.40 743.00-10.60L743.00-10.60Q743.00-12.80 742.06-14.50Q741.12-16.20 739.50-17.12Q737.88-18.04 735.84-18.04L735.84-18.04Q733.84-18.04 732.20-17.12Q730.56-16.20 729.64-14.50Q728.72-12.80 728.72-10.60L728.72-10.60Q728.72-8.40 729.64-6.70Q730.56-5 732.20-4.06Q733.84-3.12 735.84-3.12L735.84-3.12Z M763.28 0.24Q760.12 0.24 757.60-1.16Q755.08-2.56 753.66-5.02Q752.24-7.48 752.24-10.60L752.24-10.60Q752.24-13.72 753.66-16.18Q755.08-18.64 757.60-20.02Q760.12-21.40 763.28-21.40L763.28-21.40Q766.44-21.40 768.94-20.02Q771.44-18.64 772.86-16.18Q774.28-13.72 774.28-10.60L774.28-10.60Q774.28-7.48 772.86-5.02Q771.44-2.56 768.94-1.16Q766.44 0.24 763.28 0.24L763.28 0.24ZM763.28-3.12Q765.32-3.12 766.94-4.06Q768.56-5 769.48-6.70Q770.40-8.40 770.40-10.60L770.40-10.60Q770.40-12.80 769.48-14.50Q768.56-16.20 766.94-17.12Q765.32-18.04 763.28-18.04L763.28-18.04Q761.24-18.04 759.62-17.12Q758.00-16.20 757.06-14.50Q756.12-12.80 756.12-10.60L756.12-10.60Q756.12-8.40 757.06-6.70Q758.00-5 759.62-4.06Q761.24-3.12 763.28-3.12L763.28-3.12Z M789.12-21.40Q793.52-21.40 795.86-19.24Q798.20-17.08 798.20-12.80L798.20-12.80L798.20 0L794.56 0L794.56-2.80Q793.60-1.32 791.82-0.54Q790.04 0.24 787.60 0.24L787.60 0.24Q784.04 0.24 781.90-1.48Q779.76-3.20 779.76-6L779.76-6Q779.76-8.80 781.80-10.50Q783.84-12.20 788.28-12.20L788.28-12.20L794.36-12.20L794.36-12.96Q794.36-15.44 792.92-16.76Q791.48-18.08 788.68-18.08L788.68-18.08Q786.80-18.08 785.00-17.46Q783.20-16.84 781.96-15.80L781.96-15.80L780.36-18.68Q782.00-20 784.28-20.70Q786.56-21.40 789.12-21.40L789.12-21.40ZM788.24-2.72Q790.44-2.72 792.04-3.70Q793.64-4.68 794.36-6.48L794.36-6.48L794.36-9.44L788.44-9.44Q783.56-9.44 783.56-6.16L783.56-6.16Q783.56-4.56 784.80-3.64Q786.04-2.72 788.24-2.72L788.24-2.72Z M829.32 0.24Q826.08 0.24 823.54-1.16Q821.00-2.56 819.56-5.02Q818.12-7.48 818.12-10.60L818.12-10.60Q818.12-13.72 819.56-16.18Q821.00-18.64 823.54-20.02Q826.08-21.40 829.32-21.40L829.32-21.40Q832.20-21.40 834.46-20.24Q836.72-19.08 837.96-16.88L837.96-16.88L835.04-15Q834.04-16.52 832.56-17.28Q831.08-18.04 829.28-18.04L829.28-18.04Q827.20-18.04 825.54-17.12Q823.88-16.20 822.94-14.50Q822.00-12.80 822.00-10.60L822.00-10.60Q822.00-8.36 822.94-6.66Q823.88-4.96 825.54-4.04Q827.20-3.12 829.28-3.12L829.28-3.12Q831.08-3.12 832.56-3.88Q834.04-4.64 835.04-6.16L835.04-6.16L837.96-4.32Q836.72-2.12 834.46-0.94Q832.20 0.24 829.32 0.24L829.32 0.24Z M853.68 0.24Q850.52 0.24 848.00-1.16Q845.48-2.56 844.06-5.02Q842.64-7.48 842.64-10.60L842.64-10.60Q842.64-13.72 844.06-16.18Q845.48-18.64 848.00-20.02Q850.52-21.40 853.68-21.40L853.68-21.40Q856.84-21.40 859.34-20.02Q861.84-18.64 863.26-16.18Q864.68-13.72 864.68-10.60L864.68-10.60Q864.68-7.48 863.26-5.02Q861.84-2.56 859.34-1.16Q856.84 0.24 853.68 0.24L853.68 0.24ZM853.68-3.12Q855.72-3.12 857.34-4.06Q858.96-5 859.88-6.70Q860.80-8.40 860.80-10.60L860.80-10.60Q860.80-12.80 859.88-14.50Q858.96-16.20 857.34-17.12Q855.72-18.04 853.68-18.04L853.68-18.04Q851.64-18.04 850.02-17.12Q848.40-16.20 847.46-14.50Q846.52-12.80 846.52-10.60L846.52-10.60Q846.52-8.40 847.46-6.70Q848.40-5 850.02-4.06Q851.64-3.12 853.68-3.12L853.68-3.12Z M898.52-21.40Q902.52-21.40 904.86-19.08Q907.20-16.76 907.20-12.20L907.20-12.20L907.20 0L903.36 0L903.36-11.76Q903.36-14.84 901.94-16.40Q900.52-17.96 897.88-17.96L897.88-17.96Q894.96-17.96 893.24-16.14Q891.52-14.32 891.52-10.92L891.52-10.92L891.52 0L887.68 0L887.68-11.76Q887.68-14.84 886.26-16.40Q884.84-17.96 882.20-17.96L882.20-17.96Q879.28-17.96 877.56-16.14Q875.84-14.32 875.84-10.92L875.84-10.92L875.84 0L872.00 0L872.00-21.20L875.68-21.20L875.68-18.04Q876.84-19.68 878.72-20.54Q880.60-21.40 883.00-21.40L883.00-21.40Q885.48-21.40 887.40-20.40Q889.32-19.40 890.36-17.48L890.36-17.48Q891.56-19.32 893.70-20.36Q895.84-21.40 898.52-21.40L898.52-21.40Z M916.28 0L916.28-21.20L920.12-21.20L920.12 0L916.28 0ZM918.20-25.28Q917.08-25.28 916.34-26Q915.60-26.72 915.60-27.76L915.60-27.76Q915.60-28.80 916.34-29.54Q917.08-30.28 918.20-30.28L918.20-30.28Q919.32-30.28 920.06-29.58Q920.80-28.88 920.80-27.84L920.80-27.84Q920.80-26.76 920.06-26.02Q919.32-25.28 918.20-25.28L918.20-25.28Z M945.60-29.68L949.44-29.68L949.44 0L945.76 0L945.76-3.36Q944.48-1.60 942.52-0.68Q940.56 0.24 938.20 0.24L938.20 0.24Q935.12 0.24 932.68-1.12Q930.24-2.48 928.86-4.94Q927.48-7.40 927.48-10.60L927.48-10.60Q927.48-13.80 928.86-16.24Q930.24-18.68 932.68-20.04Q935.12-21.40 938.20-21.40L938.20-21.40Q940.48-21.40 942.40-20.54Q944.32-19.68 945.60-18L945.60-18L945.60-29.68ZM938.52-3.12Q940.52-3.12 942.16-4.06Q943.80-5 944.72-6.70Q945.64-8.40 945.64-10.60L945.64-10.60Q945.64-12.80 944.72-14.50Q943.80-16.20 942.16-17.12Q940.52-18.04 938.52-18.04L938.52-18.04Q936.48-18.04 934.86-17.12Q933.24-16.20 932.30-14.50Q931.36-12.80 931.36-10.60L931.36-10.60Q931.36-8.40 932.30-6.70Q933.24-5 934.86-4.06Q936.48-3.12 938.52-3.12L938.52-3.12Z M966.44-21.40Q970.84-21.40 973.18-19.24Q975.52-17.08 975.52-12.80L975.52-12.80L975.52 0L971.88 0L971.88-2.80Q970.92-1.32 969.14-0.54Q967.36 0.24 964.92 0.24L964.92 0.24Q961.36 0.24 959.22-1.48Q957.08-3.20 957.08-6L957.08-6Q957.08-8.80 959.12-10.50Q961.16-12.20 965.60-12.20L965.60-12.20L971.68-12.20L971.68-12.96Q971.68-15.44 970.24-16.76Q968.80-18.08 966.00-18.08L966.00-18.08Q964.12-18.08 962.32-17.46Q960.52-16.84 959.28-15.80L959.28-15.80L957.68-18.68Q959.32-20 961.60-20.70Q963.88-21.40 966.44-21.40L966.44-21.40ZM965.56-2.72Q967.76-2.72 969.36-3.70Q970.96-4.68 971.68-6.48L971.68-6.48L971.68-9.44L965.76-9.44Q960.88-9.44 960.88-6.16L960.88-6.16Q960.88-4.56 962.12-3.64Q963.36-2.72 965.56-2.72L965.56-2.72Z"/></g>
</svg>
</g><g opacity="1" transform="rotate(0 86.4202 166.5062)">
<svg width="352.8864" height="40" x="86.4202" y="166.5062" version="1.1" preserveAspectRatio="none" viewBox="4.3359 -32.3242 368.22270000000003 41.738299999999995">
  <g transform="matrix(1 0 0 1 0 0)" class="background"><path id="id-D6z1nYkh14" d="M4.34 0L4.34-30.53L10.53-30.53L10.53-5.43L28.28-5.43L28.28 0L4.34 0Z M32.46-7.27L32.46-7.27Q32.46-8.93 33.18-10.29Q33.91-11.66 35.35-12.65Q36.80-13.63 38.96-14.17Q41.11-14.71 43.98-14.71L43.98-14.71Q46.11-14.71 48.47-14.39Q50.82-14.08 53.32-13.44L53.32-13.44Q53.22-14.53 52.66-15.46Q52.09-16.39 51.08-17.06Q50.08-17.73 48.66-18.11Q47.25-18.48 45.45-18.48L45.45-18.48Q44.47-18.48 43.30-18.36Q42.13-18.24 40.88-18.01Q39.63-17.77 38.41-17.42Q37.19-17.07 36.13-16.58L36.13-16.58L34.38-21.33Q35.68-21.80 37.18-22.19Q38.67-22.58 40.23-22.86Q41.80-23.14 43.36-23.30Q44.92-23.46 46.39-23.46L46.39-23.46Q52.85-23.46 56.00-20.16Q59.14-16.86 59.14-10.04L59.14-10.04L59.14 0L53.36 0L53.36-2.17Q52.46-1.64 51.40-1.17Q50.33-0.70 49.08-0.35Q47.83 0 46.40 0.21Q44.96 0.41 43.36 0.41L43.36 0.41Q40.66 0.41 38.62-0.18Q36.58-0.76 35.21-1.80Q33.85-2.83 33.15-4.23Q32.46-5.63 32.46-7.27ZM38.55-7.46L38.55-7.46Q38.55-6.89 38.85-6.38Q39.14-5.86 39.79-5.46Q40.43-5.06 41.44-4.81Q42.44-4.57 43.87-4.57L43.87-4.57Q45.39-4.57 46.82-4.84Q48.24-5.12 49.47-5.57Q50.70-6.02 51.70-6.60Q52.70-7.19 53.36-7.81L53.36-7.81L53.36-8.83Q52.03-9.20 50.73-9.45Q49.43-9.71 48.25-9.85Q47.07-10 46.03-10.06Q44.98-10.12 44.20-10.12L44.20-10.12Q42.58-10.12 41.50-9.90Q40.43-9.69 39.77-9.33Q39.10-8.96 38.83-8.48Q38.55-7.99 38.55-7.46Z M80.78 0L80.78-30.53L96.88-30.53Q100.39-30.53 102.97-29.77Q105.55-29.00 107.25-27.57Q108.95-26.13 109.78-24.06Q110.61-21.99 110.61-19.39L110.61-19.39Q110.61-16.95 109.79-14.88Q108.96-12.81 107.28-11.30Q105.59-9.79 103.01-8.94Q100.43-8.09 96.91-8.09L96.91-8.09L86.97-8.11L86.97 0L80.78 0ZM86.97-13.46L97.03-13.46Q98.79-13.46 100.11-13.88Q101.43-14.30 102.31-15.07Q103.20-15.84 103.64-16.94Q104.08-18.05 104.08-19.39L104.08-19.39Q104.08-22.11 102.31-23.62Q100.55-25.14 97.03-25.14L97.03-25.14L86.97-25.14L86.97-13.46Z M115.55-11.60L115.55-11.60Q115.55-13.95 116.50-16.08Q117.46-18.22 119.26-19.86Q121.05-21.50 123.66-22.48Q126.27-23.46 129.59-23.46L129.59-23.46Q132.89-23.46 135.54-22.47Q138.18-21.48 140.03-19.77Q141.88-18.05 142.86-15.72Q143.85-13.40 143.85-10.74L143.85-10.74Q143.85-10.41 143.84-10.03Q143.83-9.65 143.79-9.34L143.79-9.34L121.99-9.34Q122.36-8.30 123.19-7.44Q124.02-6.58 125.27-5.96Q126.52-5.33 128.16-4.99Q129.80-4.65 131.80-4.65L131.80-4.65Q133.79-4.65 135.76-5.07Q137.73-5.49 139.53-6.13L139.53-6.13L141.48-1.72Q140.35-1.19 139.19-0.79Q138.03-0.39 136.77-0.13Q135.51 0.14 134.13 0.27Q132.75 0.41 131.23 0.41L131.23 0.41Q127.34 0.41 124.41-0.53Q121.48-1.46 119.51-3.09Q117.54-4.71 116.54-6.89Q115.55-9.08 115.55-11.60ZM121.99-13.85L137.71-13.85Q137.40-14.80 136.75-15.63Q136.09-16.46 135.12-17.08Q134.14-17.70 132.85-18.05Q131.56-18.40 130.02-18.40L130.02-18.40Q128.38-18.40 127.03-18.03Q125.68-17.66 124.67-17.03Q123.65-16.41 122.98-15.59Q122.30-14.77 121.99-13.85L121.99-13.85Z M153.54 0L153.54-18.71L147.97-18.71L147.97-23.05L153.54-23.05L153.54-30.21L159.32-30.21L159.32-23.05L164.88-23.05L164.88-18.71L159.32-18.71L159.32 0L153.54 0Z M173.07-26.19L173.07-26.19Q172.21-26.19 171.51-26.44Q170.82-26.68 170.33-27.10Q169.84-27.52 169.58-28.08Q169.32-28.63 169.32-29.26L169.32-29.26Q169.32-29.90 169.58-30.46Q169.84-31.02 170.33-31.43Q170.82-31.84 171.51-32.08Q172.21-32.32 173.07-32.32L173.07-32.32Q173.95-32.32 174.64-32.08Q175.33-31.84 175.82-31.43Q176.31-31.02 176.57-30.46Q176.84-29.90 176.84-29.26L176.84-29.26Q176.84-28.63 176.57-28.08Q176.31-27.52 175.82-27.10Q175.33-26.68 174.64-26.44Q173.95-26.19 173.07-26.19ZM170.18 0L170.18-23.05L175.96-23.05L175.96 0L170.18 0Z M181.78-2.70L184.28-7.07Q186.62-5.66 189.43-5Q192.25-4.34 195.20-4.34L195.20-4.34Q197.19-4.34 198.52-4.61Q199.84-4.88 200.64-5.31Q201.45-5.74 201.78-6.29Q202.11-6.84 202.11-7.40L202.11-7.40Q202.11-8.22 201.40-8.81Q200.68-9.39 199.04-9.39L199.04-9.39Q198.28-9.39 197.40-9.30Q196.52-9.20 195.56-9.09Q194.59-8.98 193.54-8.89Q192.50-8.79 191.43-8.79L191.43-8.79Q189.08-8.79 187.43-9.30Q185.78-9.80 184.75-10.68Q183.71-11.56 183.24-12.76Q182.77-13.96 182.77-15.35L182.77-15.35Q182.77-17.11 183.59-18.59Q184.41-20.08 185.94-21.16Q187.46-22.25 189.62-22.85Q191.78-23.46 194.43-23.46L194.43-23.46Q195.82-23.46 197.33-23.29Q198.85-23.13 200.31-22.85Q201.78-22.58 203.13-22.22Q204.47-21.86 205.51-21.45L205.51-21.45L203.69-16.95Q201.48-17.77 199.29-18.25Q197.09-18.73 194.77-18.73L194.77-18.73Q193.14-18.73 192.02-18.49Q190.90-18.24 190.20-17.84Q189.49-17.44 189.17-16.92Q188.85-16.41 188.85-15.84L188.85-15.84Q188.85-15.43 189.01-15.10Q189.18-14.77 189.56-14.52Q189.94-14.28 190.56-14.15Q191.17-14.02 192.07-14.02L192.07-14.02Q192.89-14.02 193.81-14.12Q194.73-14.22 195.72-14.33Q196.72-14.43 197.78-14.53Q198.85-14.63 199.96-14.63L199.96-14.63Q202.03-14.63 203.58-14.14Q205.14-13.65 206.15-12.77Q207.17-11.89 207.68-10.70Q208.18-9.51 208.18-8.11L208.18-8.11Q208.18-6.29 207.34-4.73Q206.50-3.16 204.84-2.02Q203.18-0.88 200.71-0.23Q198.24 0.41 195 0.41L195 0.41Q193.01 0.41 191.15 0.17Q189.30-0.08 187.62-0.50Q185.94-0.92 184.46-1.48Q182.99-2.05 181.78-2.70L181.78-2.70Z M211.99-11.43L211.99-11.43Q211.99-14.18 213.03-16.40Q214.06-18.61 215.89-20.19Q217.71-21.76 220.22-22.61Q222.73-23.46 225.66-23.46L225.66-23.46Q228.18-23.46 230.29-22.88Q232.40-22.30 233.95-21.39L233.95-21.39L233.95-23.05L239.73-23.05L239.73 9.41L233.95 9.41L233.95-2.17Q233.18-1.64 232.21-1.17Q231.23-0.70 230.12-0.35Q229.00 0 227.78 0.21Q226.56 0.41 225.31 0.41L225.31 0.41Q222.38 0.41 219.93-0.45Q217.48-1.31 215.72-2.87Q213.96-4.43 212.98-6.61Q211.99-8.79 211.99-11.43ZM218.07-11.43L218.07-11.43Q218.07-10.04 218.62-8.81Q219.18-7.58 220.22-6.65Q221.27-5.72 222.74-5.19Q224.22-4.65 226.05-4.65L226.05-4.65Q227.23-4.65 228.34-4.87Q229.45-5.10 230.46-5.51Q231.46-5.92 232.35-6.50Q233.24-7.09 233.95-7.81L233.95-7.81L233.95-15.80Q232.17-17.21 230.28-17.80Q228.40-18.40 226.43-18.40L226.43-18.40Q224.43-18.40 222.88-17.86Q221.33-17.32 220.26-16.39Q219.20-15.45 218.63-14.18Q218.07-12.91 218.07-11.43Z M246.80-11.00L246.80-23.07L252.56-23.07L252.56-11.82Q252.56-10.21 252.91-8.90Q253.26-7.58 254.11-6.64Q254.96-5.70 256.38-5.19Q257.79-4.67 259.90-4.67L259.90-4.67Q260.90-4.67 261.92-4.88Q262.95-5.10 263.89-5.48Q264.82-5.86 265.63-6.39Q266.45-6.91 267.03-7.54L267.03-7.54L267.03-23.07L272.81-23.07L272.81 0L267.03 0L267.03-1.97Q264.90-0.70 262.75-0.16Q260.61 0.39 258.67 0.39L258.67 0.39Q255.51 0.39 253.25-0.37Q251.00-1.13 249.56-2.59Q248.13-4.04 247.46-6.16Q246.80-8.28 246.80-11.00L246.80-11.00Z M279.06-11.60L279.06-11.60Q279.06-13.95 280.02-16.08Q280.98-18.22 282.77-19.86Q284.57-21.50 287.18-22.48Q289.79-23.46 293.11-23.46L293.11-23.46Q296.41-23.46 299.05-22.47Q301.70-21.48 303.54-19.77Q305.39-18.05 306.38-15.72Q307.36-13.40 307.36-10.74L307.36-10.74Q307.36-10.41 307.35-10.03Q307.34-9.65 307.30-9.34L307.30-9.34L285.51-9.34Q285.88-8.30 286.71-7.44Q287.54-6.58 288.79-5.96Q290.04-5.33 291.68-4.99Q293.32-4.65 295.31-4.65L295.31-4.65Q297.30-4.65 299.28-5.07Q301.25-5.49 303.05-6.13L303.05-6.13L305-1.72Q303.87-1.19 302.71-0.79Q301.54-0.39 300.28-0.13Q299.02 0.14 297.65 0.27Q296.27 0.41 294.75 0.41L294.75 0.41Q290.86 0.41 287.93-0.53Q285-1.46 283.03-3.09Q281.05-4.71 280.06-6.89Q279.06-9.08 279.06-11.60ZM285.51-13.85L301.23-13.85Q300.92-14.80 300.26-15.63Q299.61-16.46 298.63-17.08Q297.66-17.70 296.37-18.05Q295.08-18.40 293.54-18.40L293.54-18.40Q291.89-18.40 290.55-18.03Q289.20-17.66 288.18-17.03Q287.17-16.41 286.49-15.59Q285.82-14.77 285.51-13.85L285.51-13.85Z M316.62-26.19L316.62-26.19Q315.76-26.19 315.07-26.44Q314.38-26.68 313.89-27.10Q313.40-27.52 313.13-28.08Q312.87-28.63 312.87-29.26L312.87-29.26Q312.87-29.90 313.13-30.46Q313.40-31.02 313.89-31.43Q314.38-31.84 315.07-32.08Q315.76-32.32 316.62-32.32L316.62-32.32Q317.50-32.32 318.19-32.08Q318.89-31.84 319.38-31.43Q319.86-31.02 320.13-30.46Q320.39-29.90 320.39-29.26L320.39-29.26Q320.39-28.63 320.13-28.08Q319.86-27.52 319.38-27.10Q318.89-26.68 318.19-26.44Q317.50-26.19 316.62-26.19ZM313.73 0L313.73-23.05L319.51-23.05L319.51 0L313.73 0Z M326.91 0L326.91-23.05L332.70-23.05L332.70-19.73Q334.61-21.15 336.74-22.19Q338.87-23.22 340.98-23.77L340.98-23.77L342.68-18.48Q339.34-18.14 336.81-16.98Q334.28-15.82 332.70-13.71L332.70-13.71L332.70 0L326.91 0Z M345.88-7.27L345.88-7.27Q345.88-8.93 346.60-10.29Q347.32-11.66 348.77-12.65Q350.21-13.63 352.37-14.17Q354.53-14.71 357.40-14.71L357.40-14.71Q359.53-14.71 361.88-14.39Q364.24-14.08 366.74-13.44L366.74-13.44Q366.64-14.53 366.07-15.46Q365.51-16.39 364.50-17.06Q363.50-17.73 362.08-18.11Q360.66-18.48 358.87-18.48L358.87-18.48Q357.89-18.48 356.72-18.36Q355.55-18.24 354.30-18.01Q353.05-17.77 351.83-17.42Q350.61-17.07 349.55-16.58L349.55-16.58L347.79-21.33Q349.10-21.80 350.60-22.19Q352.09-22.58 353.65-22.86Q355.21-23.14 356.78-23.30Q358.34-23.46 359.80-23.46L359.80-23.46Q366.27-23.46 369.41-20.16Q372.56-16.86 372.56-10.04L372.56-10.04L372.56 0L366.78 0L366.78-2.17Q365.88-1.64 364.81-1.17Q363.75-0.70 362.50-0.35Q361.25 0 359.81 0.21Q358.38 0.41 356.78 0.41L356.78 0.41Q354.08 0.41 352.04-0.18Q350-0.76 348.63-1.80Q347.27-2.83 346.57-4.23Q345.88-5.63 345.88-7.27ZM351.97-7.46L351.97-7.46Q351.97-6.89 352.27-6.38Q352.56-5.86 353.20-5.46Q353.85-5.06 354.85-4.81Q355.86-4.57 357.29-4.57L357.29-4.57Q358.81-4.57 360.23-4.84Q361.66-5.12 362.89-5.57Q364.12-6.02 365.12-6.60Q366.11-7.19 366.78-7.81L366.78-7.81L366.78-8.83Q365.45-9.20 364.15-9.45Q362.85-9.71 361.67-9.85Q360.49-10 359.44-10.06Q358.40-10.12 357.62-10.12L357.62-10.12Q356.00-10.12 354.92-9.90Q353.85-9.69 353.18-9.33Q352.52-8.96 352.25-8.48Q351.97-7.99 351.97-7.46Z"/></g>
</svg>
</g><g opacity="1" transform="rotate(0 -46.5797 136.5062)">
<svg width="99.9999" height="100" x="-46.5797" y="136.5062" version="1.1" preserveAspectRatio="none" viewBox="0 0 99.9999 100">
  <defs><rect x="0" y="0" width="99.9999" height="100" rx="0px" ry="0px" id="id-tBXipXk0b1718580529123"></rect></defs><use class="companyName text-str" style="stroke-width:0;" xlink:href="#id-tBXipXk0b1718580529123"></use>
</svg>
</g><g opacity="1" transform="rotate(0 -26.5797 164.0062)">
<svg width="59.9999" height="45" x="-26.5797" y="164.0062" version="1.1" preserveAspectRatio="none" viewBox="20.000423431396484 40.00017547607422 159.9994354248047 119.99980926513672">
  <g transform="matrix(1 0 0 1 0 0)"><g><path d="M125.282 79.545c.912.407 1.823.817 2.732 1.228a.989.989 0 0 0 .815-1.801c-.913-.413-1.827-.824-2.742-1.232a.989.989 0 0 0-.805 1.805zm-7.339-4.291a.987.987 0 0 0 .517 1.298c1.199.517 2.396 1.039 3.59 1.563a.99.99 0 0 0 .795-1.811c-1.2-.526-2.4-1.049-3.603-1.567a.986.986 0 0 0-1.299.517zm.769-18.656.61-.308c.852-.43.102-1.71-.748-1.28l-.61.308c-.852.429-.103 1.709.748 1.28zm2.67.953.453-.155c.897-.307.512-1.74-.394-1.43l-.453.155c-.898.308-.512 1.74.394 1.43zm-5.531-2.787c.215.378.651.43 1.014.266l.684-.308c.368-.166.449-.693.266-1.014-.215-.378-.651-.43-1.014-.266l-.684.308c-.368.166-.449.693-.266 1.014zm-8.658 14.566-.504-.297a.988.988 0 1 0-1.007 1.701l.502.297a.99.99 0 0 0 1.009-1.701zm42.417 28.818c.355.578 1.428.472 1.368-.344-.036-.492-.302-.934-.819-1.024-.87-.153-1.262 1.069-.549 1.368zm2.098-1.127c.533.785 1.818.044 1.28-.748l-.277-.407c-.533-.785-1.818-.044-1.28.748l.277.407zm2.259-1.495c.655.697 1.701-.353 1.048-1.049l-.38-.404c-.654-.697-1.701.353-1.048 1.048l.38.405zm-4.579-15.09a.741.741 0 0 0-.952.44l-.602 1.637a.742.742 0 0 0 1.392.511l.601-1.637a.74.74 0 0 0-.439-.951zM41.322 98.94h.003c.763-.001 1.428-.363 1.962-.654l2.14-1.166c.476-.259 1.016-.553 1.463-1.017.57-.595.842-1.358.725-2.045-.084-.497-.443-.999-.937-1.309-.408-.256-.849-.335-1.242-.222a.736.736 0 0 0-.205.095c-.685.456-1.434.88-2.158 1.292-.746.423-1.518.86-2.246 1.345-.416.277-1.39.926-1.39 1.977 0 .422.171.825.482 1.135.357.356.882.569 1.403.569zm.326-2.447c.684-.456 1.433-.879 2.156-1.29a41.007 41.007 0 0 0 2.054-1.219c.118.064.275.228.296.322.036.215-.097.524-.333.769-.288.299-.702.524-1.103.742l-2.14 1.165c-.407.222-.869.473-1.257.474-.131 0-.274-.055-.402-.222.001-.117.127-.341.729-.741zM96.623 53.25h.007c.765-.001 1.429-.363 1.963-.654l2.139-1.164c.477-.261 1.017-.555 1.462-1.018.571-.594.843-1.358.726-2.045-.084-.497-.443-.999-.935-1.309-.408-.256-.849-.336-1.243-.222a.736.736 0 0 0-.205.095c-.685.456-1.434.88-2.158 1.292-.746.423-1.518.86-2.246 1.345-.416.277-1.39.926-1.39 1.977 0 .422.172.825.483 1.136.355.356.878.567 1.397.567zm.33-2.446c.684-.456 1.433-.879 2.156-1.29a41.007 41.007 0 0 0 2.054-1.219c.117.064.274.227.295.322.037.215-.097.523-.334.768-.287.299-.701.525-1.102.743l-2.139 1.165c-.407.222-.867.472-1.258.473h-.002c-.13 0-.272-.054-.399-.221 0-.117.127-.341.729-.741zm75.55 8.124c-11.403-13.189-35.6-18.115-63.149-12.857-.035.007-.066.021-.1.03a59.31 59.31 0 0 0-.893-.685c.156-.102.315-.208.487-.325.264-.179.505-.344.687-.446l.285-.155c.696-.372 1.649-.881 1.879-1.756.448-1.707-.175-2.35-.776-2.587-.747-.297-1.72.109-2.729.584a16.633 16.633 0 0 0-3.471 2.209c-2.982-1.806-6.168-3.136-8.93-2.916-1.829.145-3.339.931-4.488 2.336-1.474 1.803-1.69 5.45-1.528 9.511-5.782 2.215-12.68 5.376-18.121 8.307-1.246-.407-2.45-.615-3.564-.535-1.641.117-2.991.81-4.012 2.059-.639.782-.952 2.016-1.046 3.576a1.438 1.438 0 0 0-.347.157c-8.323 5.297-15.718 11.235-21.98 17.649-.169.173-.271.38-.338.597-.138.003-.28-.011-.415 0-1.829.145-3.339.931-4.488 2.336-.869 1.064-1.3 2.771-1.475 4.824a1.453 1.453 0 0 0-.345.307c-15.781 19.862-18.013 40.036-5.971 53.965 8.623 9.973 23.579 14.889 41.146 14.887 20.016-.001 43.419-6.385 64.668-18.94 25.597-15.123 42.791-35.845 45.994-55.433 1.675-10.246-.739-19.478-6.98-26.699zm-63.6-16.892c.797-.376 1.308-.56 1.447-.539.004.007.093.185-.084.859-.066.249-.821.654-1.144.825l-.316.172c-.208.119-.486.305-.788.51-.28.189-.639.429-.954.613a44.343 44.343 0 0 0-1.017-.697 15.559 15.559 0 0 1 2.856-1.743zm-15.685 1.888c.716-.876 1.622-1.346 2.77-1.436 4.78-.374 12.008 5.629 15.348 8.562-6.149 2.873-15.831 8.667-16.933 13.851-.015.072-.023.152-.038.224-1.232-1.28-1.534-3.573-1.665-5.737a.97.97 0 0 0 .002-.666c-.01-.025-.03-.042-.042-.066l-.025-.53-.035-.731a84.075 84.075 0 0 0-.121-1.764c-.24-3.212-.74-9.897.739-11.707zm58.307 28.548-2.285 6.216a.743.743 0 0 0 1.392.511l3.732-10.151c.342-.931.681-1.8 1.078-2.563 1.326-1.771 2.492-2.608 3.398-2.425.729.157 1.403 1.008 2.062 2.601 1.21 2.926 1.932 6.076 2.146 9.36.003.052.03.095.039.145-1.946 2.792-4.791 5.877-7.603 7.034-4.623 1.903-8.177 2.835-10.64 2.811a93.329 93.329 0 0 1 6.681-13.539zm-7.115 7.355c-.55.351-2.013 1.28-2.373 1.137-.001-.001-.138-.155-.117-.781.174-.608 2.356-1.804 4.004-2.639a99.528 99.528 0 0 0-.927 1.917 28.69 28.69 0 0 0-.587.366zm11.315 5.985c1.252.196 2.54.494 3.794.79.939.222 1.874.443 2.798.623.389.076.891.183 1.162.398-.621 1.268-1.426 2.433-2.42 3.411-2.171 2.136-8.597 8.093-14.414 10.329a4.142 4.142 0 0 1-.711.079c-.225 0-.292-.035-.29-.028-.287-.358-.326-1.016-.1-1.673.256-.745.788-1.453 1.303-2.136l8.878-11.793zm6.97-.528a72.005 72.005 0 0 1-2.722-.606c-.475-.112-.956-.224-1.439-.332 2.614-1.724 4.793-4.313 6.122-6.122.521 2.465.359 5.12-.43 7.548-.534-.274-1.1-.404-1.531-.488zm1.895-15.238a30.76 30.76 0 0 0-.36-1.316c.801-.736 1.476-1.13 2.586-1.707l.111-.056a.962.962 0 0 0 .384-.135c.041-.026.064-.066.1-.097.271-.12.479-.194.605-.207.018.098.031.339-.09.846-.061.255-.713.639-1.026.823l-.289.173c-.241.151-.61.466-1.191.968-.224.194-.53.458-.83.708zm-.863-2.842c-.176-.497-.341-.999-.542-1.485-.633-1.531-1.719-3.62-3.827-4.072-3.089-.671-5.475 2.737-6.26 3.854-.053.075-.102.153-.155.228-5.464-3.109-16.408-8.902-25.256-12.696 16.996-.432 29.803 3.359 36.253 10.819a23.796 23.796 0 0 1 1.637 2.149c-.726.392-1.286.744-1.85 1.203zm-12.177.574a94.15 94.15 0 0 0-4.489 7.553l-.349.17c-4.12 2-6.222 3.261-6.27 4.602-.039 1.077.248 1.798.853 2.145.248.141.516.203.798.203.565 0 1.186-.249 1.809-.585a96.572 96.572 0 0 0-1.632 3.928c-.373.117-.692.387-.817.787a1.234 1.234 0 0 0 .808 1.549c.812.256 1.714.367 2.671.367 2.311 0 4.941-.648 7.404-1.469l-7.067 9.386c-.579.769-1.235 1.642-1.593 2.683-.376 1.094-.325 2.188.11 3.045a8.272 8.272 0 0 1-1.372.089c-.202-.007-.409-.032-.613-.048-.163-2.468-.857-4.885-2.142-6.985-.013-.022-.036-.034-.05-.054-.052-.289-.104-.579-.164-.866a32.334 32.334 0 0 0 1.638-.934c.219-.13.406-.242.537-.317l.282-.154c.697-.372 1.651-.88 1.882-1.757.449-1.708-.174-2.35-.776-2.588-.748-.299-1.723.11-2.728.584-.499.235-.833.321-1.157.405-.315.082-.622.164-.978.353a28.705 28.705 0 0 0-.701-1.693c-.694-1.522-1.878-3.598-4.135-4.037-2.958-.578-5.362 2.11-6.424 3.441-6.934-3.917-21.532-11.541-30.52-14.689-.186-2.381-.043-4.969.422-7.262a41.826 41.826 0 0 0 6.522 3.998.989.989 0 0 0 .872-1.775 39.768 39.768 0 0 1-6.6-4.095c3.048-4.612 13.843-10.458 18.301-11.918 2.419-.787 20.588 7.341 35.668 15.938zm-33.373 56.475a8.539 8.539 0 0 1-1.375.085c-1.556-.05-3.29-.416-5.267-1.092-.219-2.299-.907-4.538-2.108-6.501-.013-.022-.036-.033-.05-.054a30.304 30.304 0 0 0-.185-.954c.433-.294.958-.698 1.612-1.209.442-.346.942-.739 1.12-.838l.286-.155c.695-.372 1.648-.88 1.878-1.755.144-.548.17-.976.129-1.326.108.074.22.144.352.182.821.234 1.763.351 2.833.351 2.429 0 5.52-.614 9.311-1.835l-7.054 9.37c-.579.768-1.234 1.639-1.593 2.683-.377 1.096-.326 2.192.111 3.048zm-30.233 21.545a8.28 8.28 0 0 1-1.373.09c-5.083-.161-11.077-3.529-16.366-6.501-1.48-.831-2.877-1.616-4.179-2.286l-.498-.256c-6.22-3.2-17.797-9.158-22.742-13.555-2.397-2.133-2.881-8.907-1.848-14.006a41.937 41.937 0 0 0 6.527 4.002.99.99 0 0 0 .872-1.775 39.87 39.87 0 0 1-6.6-4.095c3.048-4.612 13.843-10.459 18.301-11.918 2.398-.771 20.145 7.143 35.111 15.618a92.758 92.758 0 0 0-5.448 8.216l-.466.205c-4.531 1.994-6.842 3.254-6.896 4.609-.042 1.04.242 1.751.843 2.114.274.165.578.236.902.236.663 0 1.411-.298 2.157-.682a92.485 92.485 0 0 0-1.834 3.999 1.217 1.217 0 0 0-.919.849c-.187.655.194 1.34.85 1.526.821.234 1.762.351 2.831.351 2.429 0 5.521-.615 9.313-1.836l-7.054 9.37c-.579.769-1.235 1.642-1.593 2.683-.376 1.093-.326 2.186.109 3.042zm-9.376-55.836a39.97 39.97 0 0 1-6.601-4.095c3.047-4.612 13.844-10.459 18.301-11.918 2.4-.787 20.145 7.141 35.111 15.618a93.036 93.036 0 0 0-5.448 8.215l-.467.206c-4.531 1.994-6.841 3.255-6.895 4.609-.042 1.04.242 1.751.843 2.114.275.165.578.236.902.236.664 0 1.411-.298 2.158-.682a92.985 92.985 0 0 0-1.833 3.998 1.22 1.22 0 0 0-.92.848c-.029.103-.022.205-.024.308a1.49 1.49 0 0 0-.383-.224c-.749-.297-1.721.108-2.729.584-1.138.536-1.904.946-2.703 1.557a29.28 29.28 0 0 0-.669-1.608c-.694-1.522-1.878-3.598-4.135-4.037-2.96-.579-5.363 2.11-6.424 3.441-5.812-3.282-17.008-9.164-25.774-12.838-.366-2.681-.263-5.816.292-8.556a41.951 41.951 0 0 0 6.526 4.001.99.99 0 0 0 .872-1.777zm46.514 4.284-2.804 6.917a.742.742 0 0 0 1.373.558l4.116-10.151c.406-1.001.807-1.932 1.29-2.734 1.453-1.708 2.724-2.47 3.777-2.272.866.169 1.616 1.007 2.359 2.637a27.053 27.053 0 0 1 2.359 9.327c.003.043.026.077.033.118-2.153 2.793-5.298 5.874-8.416 7.038-5.19 1.937-9.176 2.873-11.936 2.822a90.056 90.056 0 0 1 7.849-14.26zm-8.143 8.062c-.649.376-2.368 1.361-2.76 1.133-.033-.02-.151-.211-.135-.741.233-.646 2.828-1.913 4.658-2.747a90.9 90.9 0 0 0-1.04 1.948c-.224.121-.46.254-.723.407zm-22.088 13.488-2.805 6.916a.742.742 0 0 0 1.373.558l4.116-10.15c.406-1.001.808-1.932 1.29-2.735 1.454-1.708 2.725-2.473 3.777-2.273.866.169 1.616 1.007 2.359 2.637a27.086 27.086 0 0 1 2.359 9.327c.003.042.025.077.033.118-2.152 2.793-5.297 5.875-8.416 7.039-5.19 1.937-9.177 2.87-11.936 2.821a90.238 90.238 0 0 1 7.85-14.258zm-8.143 8.061c-.648.375-2.369 1.374-2.761 1.132-.033-.019-.151-.21-.135-.739.233-.646 2.827-1.914 4.658-2.748a90.9 90.9 0 0 0-1.04 1.948c-.223.121-.458.255-.722.407zm2.996 19.541c.256-.745.788-1.453 1.302-2.136l8.828-11.726c.043-.016.085-.037.128-.054 1.228.197 2.49.49 3.72.78.937.221 1.871.441 2.796.622.479.093.917.2 1.162.395-.622 1.269-1.427 2.435-2.421 3.413-2.172 2.137-8.585 8.092-14.413 10.328a4.142 4.142 0 0 1-.711.079c-.215 0-.3-.035-.291-.029-.286-.358-.326-1.015-.1-1.672zm17.152-14.455a73.337 73.337 0 0 1-2.718-.605c-.458-.108-.921-.216-1.387-.321 2.621-1.726 4.795-4.104 6.142-5.777.433 2.363.244 4.88-.507 7.19-.535-.275-1.101-.404-1.53-.487zm1.958-14.754c-.125-.462-.262-.92-.41-1.375.897-.75 1.647-1.147 2.888-1.732.798-.377 1.295-.526 1.446-.539.004.007.093.185-.084.86-.066.249-.82.652-1.143.824l-.317.172c-.261.148-.665.462-1.304.962-.289.227-.696.546-1.076.828zm11.121 7.66c.257-.747.788-1.454 1.302-2.136l8.827-11.726c.043-.016.085-.037.128-.054 1.226.197 2.487.489 3.714.778.94.222 1.875.442 2.8.623.388.076.892.183 1.162.398-.621 1.268-1.426 2.433-2.42 3.411-2.162 2.128-8.53 8.062-14.335 10.313-.825.161-1.067.064-1.079.064-.286-.359-.325-1.014-.099-1.671zm17.151-14.457c-.9-.176-1.811-.391-2.725-.606-.456-.108-.917-.215-1.381-.319 2.621-1.726 4.795-4.105 6.142-5.778.433 2.363.244 4.88-.507 7.19-.532-.273-1.099-.403-1.529-.487zm2-14.603a29.62 29.62 0 0 0-.44-1.491c.291-.191.523-.262.846-.345.353-.092.793-.206 1.491-.534.8-.377 1.297-.554 1.451-.541.004.007.093.185-.085.86-.066.25-.823.654-1.146.826l-.314.17c-.139.079-.337.198-.569.336-.308.186-.787.472-1.234.719zM93.965 67.89a30.412 30.412 0 0 0-.129 4.198c-1.968-.551-3.491-.763-4.336-.489-.361.118-.794.278-1.274.469-.28-.253-.601-.546-.979-.893a140.806 140.806 0 0 0-4.27-3.801l.257-.171c.265-.18.507-.345.69-.448l.284-.155c.696-.373 1.65-.881 1.88-1.756.316-1.201.099-1.868-.265-2.245a138.49 138.49 0 0 1 4.501-1.898c.268 2.799 1.009 5.768 3.641 7.189zm-11.561-1.915c-.182.123-.401.269-.619.408a70.851 70.851 0 0 0-.964-.775 15.488 15.488 0 0 1 2.464-1.458c.801-.379 1.296-.537 1.456-.543.004.008.093.186-.084.86-.066.25-.822.654-1.145.826l-.315.171c-.21.117-.489.305-.793.511zm7.556-10.938.056.779.027.365c-.588.218-1.118.576-1.631.932-.95.657-1.564 1.045-2.204.723-.177-.089-.243-.155-.259-.155.047-.248.563-.973 4.011-2.644zm-5.412 2.194a1.568 1.568 0 0 0-.083.446c-.004.43.179 1.036 1.079 1.487.392.196.769.277 1.13.277.982 0 1.847-.6 2.581-1.108.306-.212.601-.412.889-.57l.023.476.018.392a150.201 150.201 0 0 0-11.404 5.086.962.962 0 0 0-.24.187 36.782 36.782 0 0 0-3.452-2.182 167.768 167.768 0 0 1 9.459-4.491zm-18.555 6.035c.582-.712 1.326-1.091 2.275-1.158.961-.063 2.05.171 3.208.612.166.115.35.193.546.233 4.84 2.068 10.693 7.416 13.554 10.044l.167.153c-6.148 2.87-15.847 8.671-16.95 13.86-.015.072-.026.148-.041.221-1.472-1.535-1.613-4.522-1.725-6.995l-.035-.731c-.046-.882-.26-2.257-.53-3.997-.543-3.497-1.673-10.769-.469-12.242zm-1.77 13.941c.06.395.113.763.158 1.099-.568.22-1.082.57-1.58.916-.949.657-1.564 1.044-2.203.724-.177-.089-.244-.155-.259-.155.047-.245.549-.955 3.884-2.584zm-.235-1.533c-3.158 1.508-5.118 2.725-5.132 4.112-.004.43.179 1.036 1.08 1.487.391.196.768.277 1.129.277.982 0 1.847-.6 2.581-1.108.306-.212.602-.413.89-.571l.023.476c.15 3.297.362 7.786 3.785 9.645a29.955 29.955 0 0 0-.061 5.25c-4.22-1.635-7.584-2.555-9.012-2.093a22.68 22.68 0 0 0-1.276.47 98.58 98.58 0 0 0-3.402-2.917l.119-.079c.264-.179.505-.344.687-.446l.285-.155c.696-.372 1.649-.881 1.878-1.755.45-1.708-.173-2.35-.775-2.588-.747-.298-1.72.108-2.729.584a16.64 16.64 0 0 0-2.953 1.8 43.558 43.558 0 0 0-1.586-1.052c.007-.007.016-.009.023-.016 4.19-4.291 9.009-8.355 14.327-12.101.038.258.078.518.119.78zM53.88 89.394c-.152.102-.329.221-.509.338a59.065 59.065 0 0 0-.999-.76c.743-.528 1.534-1 2.394-1.406.797-.377 1.314-.55 1.447-.539.004.007.093.185-.085.86-.065.248-.82.653-1.143.824l-.316.172c-.209.121-.487.307-.789.511zm9.222-20.686c.096 1.238.253 2.578.448 3.993-5.743 3.972-10.932 8.314-15.422 12.913a.96.96 0 0 0-.231.426c-1.364-.763-2.753-1.407-4.114-1.831 5.594-5.584 12.081-10.789 19.319-15.501zM37.378 87.582c.716-.876 1.622-1.346 2.769-1.436 4.772-.353 12.005 5.632 15.346 8.562-6.149 2.874-15.829 8.668-16.931 13.852-.015.07-.027.148-.042.22-1.472-1.536-1.613-4.523-1.725-6.998l-.034-.729a83.5 83.5 0 0 0-.121-1.761c-.241-3.213-.742-9.899.738-11.71zm-3.085 13.598.034.713.007.153c-.43.213-.835.483-1.227.755-.948.657-1.562 1.047-2.203.723-.177-.089-.244-.155-.259-.155.044-.238.518-.918 3.63-2.46.007.088.014.191.018.271zm-.35-5.519c.05 1.197.13 2.427.222 3.656-2.138 1.026-3.697 1.921-4.462 2.829a71.856 71.856 0 0 1 4.24-6.485zm142.613-10.513c-3.017 18.451-20.098 38.897-44.575 53.359-38.723 22.88-84.508 24.974-102.063 4.666-9.063-10.483-9.15-25.01-.683-40.202-.037.13-.072.261-.073.394-.004.43.18 1.036 1.079 1.487.392.196.769.277 1.13.277.982 0 1.847-.599 2.581-1.108.162-.112.32-.219.476-.321l.018.245c-7.795 14.473-7.752 27.462.148 36.6 7.317 8.464 20.392 12.615 35.817 12.614 18.213 0 39.704-5.789 58.847-17.099 30.796-18.196 48.23-46.69 40.552-66.282a.99.99 0 0 0-1.84.722c7.327 18.698-9.748 46.15-39.718 63.857-34.586 20.434-76.791 22.675-92.164 4.894-6.904-7.986-7.268-19.282-1.108-32.026.496 1.784 1.41 3.384 3.136 4.319-.465 4.875.124 11.009 3.028 13.593 5.179 4.606 16.937 10.656 23.254 13.906l.497.256c1.262.65 2.64 1.424 4.099 2.243 5.536 3.11 11.811 6.636 17.498 6.815.098.004.196.005.294.005 7.269 0 16.499-8.303 20.164-11.91 2.812-2.768 4.395-6.652 4.629-10.593 1.872.578 3.571.901 5.142.949.098.004.196.005.294.005 7.269 0 16.499-8.303 20.164-11.91 2.73-2.686 4.296-6.425 4.6-10.246.183.012.37.037.552.042.098.004.197.005.296.005 7.268 0 16.497-8.302 20.163-11.91 5.086-5.005 6.173-13.662 2.474-19.705-.019-.031-.05-.047-.07-.076-.069-.456-.165-.904-.253-1.354a30.02 30.02 0 0 0 1.446-1.199c.399-.345.851-.736 1.007-.832l.256-.154c.637-.375 1.508-.889 1.716-1.758.322-1.349.078-2.211-.725-2.561-.376-.164-.799-.132-1.247.002a25.661 25.661 0 0 0-1.962-2.6c-7.254-8.391-21.822-12.43-41.022-11.376a.976.976 0 0 0-.606.269c-4.068-1.556-7.302-2.417-8.697-1.959-.361.118-.794.278-1.275.469-.44-.391-.978-.868-1.588-1.397 25.181-4.277 47.779.466 58.013 12.304 5.652 6.535 7.829 14.932 6.299 24.281zm-17.95-9.616c.46-.206.982-.438 1.439-.858.57-.522.892-1.241.86-1.923-.023-.524-.339-1.116-.785-1.472-.341-.271-.729-.383-1.099-.317a.72.72 0 0 0-.232.085c-.658.372-1.371.706-2.061 1.029-.712.334-1.448.68-2.153 1.078-.405.229-1.354.766-1.463 1.801-.098.93.603 1.788 1.562 1.912.095.013.189.018.281.018.617 0 1.186-.254 1.617-.446l2.034-.907zm-3.738-.134c-.124-.015-.296-.144-.28-.288.026-.246.422-.498.718-.665.655-.371 1.366-.704 2.053-1.026a36.307 36.307 0 0 0 1.89-.933c.084.092.172.24.176.331.011.241-.139.541-.382.765-.279.256-.649.421-1.041.596l-2.034.909c-.371.165-.795.345-1.1.311zM49.289 123.807l-.008.151c-.05.954 1.433.951 1.483 0l.008-.151c.049-.953-1.434-.95-1.483 0zm73.067-20.865a.744.744 0 0 0-.966.408l-.664 1.637a.741.741 0 1 0 1.373.558l.664-1.637a.74.74 0 0 0-.407-.966zm-20.113 16.648c.501-.204 1.07-.435 1.562-.845.631-.524.986-1.253.952-1.95-.025-.504-.332-1.064-.782-1.426-.371-.299-.795-.428-1.195-.362a.749.749 0 0 0-.217.072c-.727.373-1.514.708-2.275 1.031-.785.334-1.597.68-2.371 1.076-.443.227-1.48.758-1.601 1.807-.122 1.05.769 1.816 1.664 1.924.099.012.198.017.295.017.643 0 1.235-.239 1.724-.437l2.244-.907zm-4.087-.145c-.2-.023-.38-.18-.368-.28.014-.119.165-.33.804-.658.727-.373 1.514-.708 2.275-1.031.713-.304 1.449-.617 2.158-.969.109.081.242.264.25.362.011.223-.157.518-.419.737-.316.263-.732.431-1.17.61l-2.245.908c-.424.172-.907.37-1.285.321zm-6.032 5.047a.739.739 0 0 0-.965.409l-.663 1.637a.741.741 0 0 0 1.375.556l.664-1.637a.743.743 0 0 0-.411-.965zm40.348-26.453c.501-.202 1.069-.431 1.563-.844.631-.524.986-1.253.952-1.95-.025-.503-.331-1.063-.781-1.425-.371-.3-.796-.429-1.196-.363a.749.749 0 0 0-.217.072c-.727.373-1.514.708-2.275 1.031-.785.334-1.597.68-2.37 1.076-.443.227-1.48.757-1.602 1.807-.122 1.05.769 1.816 1.666 1.924.098.012.196.016.293.016.645 0 1.236-.239 1.724-.436l2.243-.908zm-4.085-.144c-.2-.023-.38-.18-.369-.279.014-.12.165-.331.805-.659.727-.373 1.514-.708 2.275-1.031.713-.304 1.448-.617 2.158-.969.109.081.242.264.25.362.011.223-.157.518-.42.737-.317.265-.75.439-1.171.609l-2.244.909c-.423.173-.898.371-1.284.321zm-48.315-5.053.507.299a.99.99 0 0 0 1.353-.352.988.988 0 0 0-.353-1.352l-.5-.295a.987.987 0 1 0-1.007 1.7zm-9.056-17.483h.003c.763-.001 1.428-.363 1.963-.654l2.14-1.165c.476-.26 1.016-.554 1.463-1.018.57-.595.842-1.358.725-2.044-.084-.498-.442-.999-.936-1.31-.408-.256-.85-.335-1.243-.222a.736.736 0 0 0-.205.095c-.683.455-1.43.878-2.152 1.288-.748.425-1.522.863-2.251 1.349-.416.276-1.392.924-1.392 1.978 0 .422.171.824.482 1.134.357.357.881.569 1.403.569zm.328-2.447c.686-.457 1.436-.881 2.162-1.294a40.758 40.758 0 0 0 2.048-1.215c.118.064.274.227.295.322.036.215-.097.524-.333.769-.288.299-.702.524-1.103.742l-2.139 1.165c-.408.222-.87.473-1.257.474-.131 0-.274-.055-.402-.221-.001-.116.125-.341.729-.742zm19.911 4.227.684-.308c.368-.166.449-.693.266-1.014-.215-.378-.651-.43-1.014-.266l-.684.308c-.368.166-.449.693-.266 1.014.215.378.651.43 1.014.266zm6.871 62.045c.654.697 1.701-.353 1.048-1.049l-.38-.404c-.654-.697-1.701.353-1.048 1.049l.38.404zm27.973-20.054c.533.785 1.818.044 1.28-.748l-.277-.407c-.533-.785-1.818-.044-1.28.748l.277.407zm-82.677.456-.264.91c-.266.918 1.164 1.31 1.43.394l.264-.91c.266-.918-1.164-1.31-1.43-.394zm52.446 21.093c.533.785 1.818.044 1.28-.748l-.277-.407c-.533-.785-1.818-.044-1.28.748l.277.407zm-2.098 1.127c.355.578 1.427.472 1.368-.344-.036-.492-.302-.934-.819-1.024-.871-.152-1.263 1.069-.549 1.368zM124 120.257c.355.578 1.427.472 1.368-.344-.036-.492-.302-.934-.819-1.024-.87-.153-1.262 1.069-.549 1.368zm4.357-2.622c.654.697 1.701-.353 1.048-1.049l-.38-.404c-.654-.697-1.701.353-1.048 1.049l.38.404zm-77.008-4.649-.504-.296a.987.987 0 1 0-1 1.704l.504.296a.99.99 0 0 0 1.353-.352.99.99 0 0 0-.353-1.352zm10.625-15.62c-.215-.378-.651-.43-1.014-.266l-.684.308c-.368.166-.449.693-.266 1.014.215.378.651.43 1.014.266l.684-.308c.368-.165.449-.692.266-1.014zm-16.902 23.387.039.679c.054.949 1.537.955 1.483 0l-.039-.679c-.055-.948-1.538-.954-1.483 0zm2.015 1.189-.028.528c-.05.954 1.433.951 1.483 0l.028-.528c.049-.954-1.434-.951-1.483 0zm29.266 3.835-8.33-4.257a.989.989 0 0 0-.9 1.761l8.33 4.257a.987.987 0 0 0 1.33-.431.989.989 0 0 0-.43-1.33zm15.245-29.041a.988.988 0 0 0 .399 1.34 604.323 604.323 0 0 1 9.141 5.056.989.989 0 0 0 .972-1.723 586.564 586.564 0 0 0-9.172-5.071.99.99 0 0 0-1.34.398zm4.174-17.076.453-.155c.897-.307.512-1.74-.394-1.43l-.453.155c-.898.307-.512 1.74.394 1.43zM62.733 98.668l-.61.308c-.852.43-.102 1.71.748 1.28l.61-.308c.852-.43.102-1.709-.748-1.28zm30.369-19.961.61-.308c.852-.43.102-1.71-.748-1.28l-.61.308c-.852.429-.103 1.709.748 1.28zM65.6 99.624l-.453.155c-.898.307-.512 1.74.394 1.43l.453-.155c.898-.307.513-1.74-.394-1.43z" data-color="1" class="icon3"></path></g></g>
</svg>
</g></svg></svg>